<?xml version="1.0" encoding="utf-8"?>
<!-- Generator: Adobe Illustrator 25.0.1, SVG Export Plug-In . SVG Version: 6.00 Build 0)  -->
<svg version="1.1" id="Capa_1" xmlns="http://www.w3.org/2000/svg" xmlns:xlink="http://www.w3.org/1999/xlink" x="0px" y="0px"
	 viewBox="0 0 228.4799957 206.8800049" style="enable-background:new 0 0 228.4799957 206.8800049;" xml:space="preserve">
<style type="text/css">
	.st0{clip-path:url(#SVGID_2_);fill:#EB8906;}
	.st1{clip-path:url(#SVGID_2_);fill:#374323;}
	.st2{clip-path:url(#SVGID_2_);fill-rule:evenodd;clip-rule:evenodd;fill:#374323;}
</style>
<g>
	<g>
		<defs>
			<rect id="SVGID_1_" x="0.7570288" y="-0.1805025" width="226.9659424" height="207.2410126"/>
		</defs>
		<clipPath id="SVGID_2_">
			<use xlink:href="#SVGID_1_"  style="overflow:visible;"/>
		</clipPath>
		<path class="st0" d="M141.9293976,7.7334075c0,1.0070186,0.8670044,1.8250117,1.9360352,1.8250117
			c1.0709839,0,1.9379883-0.8179932,1.9379883-1.8250117c0-1.0059814-0.8670044-1.8209839-1.9379883-1.8209839
			C142.796402,5.9124236,141.9293976,6.7274261,141.9293976,7.7334075 M157.2754059,17.3174229
			c0-1.006012,0.8709717-1.822999,1.9379883-1.822999c1.0719604,0,1.9369507,0.816987,1.9369507,1.822999
			c0,1.0079956-0.8649902,1.822998-1.9369507,1.822998c-0.7379761,0-1.3839722-0.3909912-1.7089844-0.9630127
			c0.8339844,2.2810059,1.4130249,4.684021,1.5889893,7.0680237c0.0950317,0.8009949,0.1489868,1.5489807,0.1730347,2.2489929
			c0.2160034-0.7869873,0.9749756-1.3680115,1.8769531-1.3680115c1.0720215,0,1.9379883,0.8180237,1.9379883,1.822998
			c0,1.007019-0.8659668,1.8250122-1.9379883,1.8250122c-0.8869629,0-1.6369629-0.5650024-1.8629761-1.3340149
			c-0.0440063,4.2020245-1.309021,6.4009991-2.0690308,7.3260174l-0.2019653,0.243988
			c0.2849731-0.1549988,0.6170044-0.2469788,0.9710083-0.2469788c1.0689697,0,1.9359741,0.8149719,1.9359741,1.8249817
			c0,1.006012-0.8670044,1.822998-1.9359741,1.822998c-1.0710449,0-1.9390259-0.8169861-1.9390259-1.822998
			c0-0.2099915,0.0369873-0.4089966,0.1049805-0.5960083c-1.480957,1.6360168-3.0619507,3.1020203-4.822998,4.6740112
			c0.2750244-0.1409912,0.5890503-0.2229919,0.9220581-0.2229919c1.0699463,0,1.9369507,0.8179932,1.9369507,1.8259888
			c0,1.006012-0.8670044,1.822998-1.9369507,1.822998c-1.0700073,0-1.9370117-0.8169861-1.9370117-1.822998
			c0-0.3519897,0.1049805-0.6809998,0.2879639-0.9589844c-1.5449829,1.3699951-3.2279663,2.8429871-5.0929565,4.5889893
			c-0.7990112,0.8680115-0.5760498,1.6610107,0.7879639,2.7569885c0.6069946,0.5379944,1.2189941,1.1029968,1.8290405,1.6790161
			c-0.1420288-0.25-0.2200317-0.5360107-0.2200317-0.8380127c0-1.0099792,0.867981-1.8259888,1.9359741-1.8259888
			c1.0720215,0,1.9390259,0.8160095,1.9390259,1.8259888c0,1.0050049-0.8670044,1.8210144-1.9390259,1.8210144
			c-0.3349609,0-0.6559448-0.0820007-0.9329834-0.223999c1.7269897,1.6789856,3.3989868,3.4279785,4.8469849,4.947998
			c-0.1329956-0.2449951-0.2099609-0.5270081-0.2099609-0.822998c0-1.0090027,0.8670044-1.822998,1.9379883-1.822998
			c1.0720215,0,1.9400024,0.8139954,1.9400024,1.822998c0,1.0059814-0.867981,1.821991-1.9400024,1.821991
			c-0.3939819,0-0.7600098-0.1090088-1.065979-0.2999878c0.8070068,0.8459778,1.5219727,1.598999,2.1189575,2.1989746
			c1.7919922,1.9179993,1.8990479,3.4150085,0.1060181,5.5280151c-0.5139771,0.5639954-1.2130127,1.2730103-2.0310059,2.071991
			c0.2470093-0.1049805,0.5200195-0.1659851,0.8140259-0.1659851c1.065979,0,1.9349976,0.815979,1.9349976,1.8209839
			c0,1.0100098-0.8690186,1.8250122-1.9349976,1.8250122c-1.0750122,0-1.94104-0.8150024-1.94104-1.8250122
			c0-0.2529907,0.0580444-0.4960022,0.1570435-0.71698c-1.5890503,1.5189819-3.4800415,3.2689819-5.3240356,4.9729919
			c0.2850342-0.1530151,0.6130371-0.2420044,0.9650269-0.2420044c1.0700073,0,1.9370117,0.8150024,1.9370117,1.822998
			c0,1.0069885-0.8670044,1.822998-1.9370117,1.822998s-1.9379883-0.8160095-1.9379883-1.822998
			c0-0.3420105,0.1040039-0.6640015,0.276001-0.9379883c-1.7340088,1.6039734-3.3880005,3.1369781-4.6620483,4.3659821
			c-1.2940063,1.3549957-0.6349487,1.5670013,0.447998,3.0019989l1.5550537,1.8249969
			c-0.1080322-0.2249908-0.1670532-0.4749908-0.1670532-0.7339935c0-1.0080109,0.868042-1.8240051,1.9400024-1.8240051
			c1.0700073,0,1.9349976,0.8159943,1.9349976,1.8240051c0,1.0059967-0.8649902,1.822998-1.9349976,1.822998
			c-0.4229736,0-0.8139648-0.128006-1.131958-0.3439941c1.3980103,1.618988,3.0019531,3.447998,4.5409546,5.1859894
			c-0.1309814-0.246994-0.2030029-0.5209961-0.2030029-0.8159943c0-1.0050049,0.8660278-1.822998,1.9370117-1.822998
			c1.0700073,0,1.9370117,0.8179932,1.9370117,1.822998c0,1.0059967-0.8670044,1.8249969-1.9370117,1.8249969
			c-0.4379883,0-0.8380127-0.1369934-1.1640015-0.3659973l1.0790405,1.2109985
			c2.0819702,2.352005,2.0819702,3.6210022,0.1789551,5.4470062l-1.3670044,1.1019897
			c0.2020264-0.0679932,0.4240112-0.1049957,0.651001-0.1049957c1.0710449,0,1.9380493,0.8150024,1.9380493,1.8220062
			c0,1.0079956-0.8670044,1.8209991-1.9380493,1.8209991c-1.0689697,0-1.9359741-0.8130035-1.9359741-1.8209991
			c0-0.3080139,0.0789795-0.6000061,0.2249756-0.8530121c-2.1819458,1.776001-4.1749878,3.4440002-6.1380005,5.0330048
			c0.2050171-0.0670013,0.4280396-0.1069946,0.6610107-0.1069946c1.0679932,0,1.9360352,0.8149872,1.9360352,1.8249969
			c0,1.0050049-0.868042,1.8209991-1.9360352,1.8209991c-1.0719604,0-1.9389648-0.8159943-1.9389648-1.8209991
			c0-0.3200073,0.0859985-0.6170044,0.2379761-0.8760071c-1.3729858,1.098999-2.7470093,2.1690063-4.1729736,3.2250061
			c-1.4720459,1.2339935-1.8200073,1.6849976-0.9110107,2.4329987c1.992981,1.677002,4.0199585,3.3690033,5.6859741,5.0079956
			c-0.1719971-0.2740021-0.2749634-0.5919952-0.2749634-0.9339905c0-1.0039978,0.867981-1.822998,1.9389648-1.822998
			c1.0700073,0,1.9379883,0.8190002,1.9379883,1.822998c0,1.0089874-0.867981,1.8209991-1.9379883,1.8209991
			c-0.4099731,0-0.7890015-0.1170044-1.1019897-0.3190002c2.0219727,2.0839996,3.3729858,4.0699921,3.2230225,5.8040009
			c-0.5419922,3.4519958-4.092041,3.0709991-6.2189941,1.7679901c-4.2550049-2.8409882-7.7250366-7.223999-11.6230469-12.3769989
			c-1.9740067-3.2529907-3.1889725-4.4140015,0.5310059-6.9519958c2.5910034-2.0720062,5.875-4.5930023,11.7269897-8.8939972
			c1.6730347-1.2149963,1.6950073-1.6849976,0.2000122-3.4730072c-3.1040039-3.4570007-6.6450195-7.2679901-8.6989746-10.0339966
			c-1.1710205-1.4400024-1.0750122-2.9810028,0.1239624-4.3059998c3.4180298-4.0570068,9.5640259-9.3069763,12.6170044-12.1499939
			c1.3040161-1.1879883,1.5970459-1.9150085,0.5490112-3.0109863c-5.9840088-5.7470093-8.3909912-8.8659973-11.6779785-12.3130188
			c-1.7009888-2.2739868-1.302002-3.4140015,0.5339966-5.3009949c1.9890137-2.0480042,2.2130127-2.1520081,7.0239868-6.6659851
			c7.0650024-6.4660015,7.9960327-6.6249981,5.2160034-11.802c-3.7979736-7.1560059-17.1550293-19.8000183-13.3889771-22.7019958
			c4.0709839-3.3659973,9.4209595-2.0760193,15.5239868,2.7739868c1.1239624,0.8160095,2.3120117,2.0050049,3.4630127,3.4570003
			c-0.0900269-0.2130127-0.1409912-0.4440002-0.1409912-0.6879883c0-1.0050044,0.8669434-1.8210139,1.9369507-1.8210139
			c1.0720215,0,1.9380493,0.8160095,1.9380493,1.8210139c0,1.0090027-0.8660278,1.8239746-1.9380493,1.8239746
			c-0.4819946,0-0.9229736-0.164978-1.2630005-0.4379883c1.5760498,2.1239929,3.0419922,4.7310181,4.1300049,7.546998
			C157.2863922,17.5504246,157.2754059,17.4344273,157.2754059,17.3174229 M114.2694168,120.0854111
			c6.7189941-22.276001,9.5949707-46.8759918,9.5949707-70.0399933c0-10.9909973-1.1459961-22.0589886-3.5219727-32.8330078
			l10.2219925-0.0019836c1.8770142,11.3469849,2.6469727,22.8500042,2.6469727,34.3330078
			c0,26.6999817-3.6269531,52.5079803-13.9220047,77.4629898l-1.5679932,0.0619965h-3.4769897h-3.5009766l-1.5670166-0.0619965
			c-10.2960205-24.9550095-13.9229736-50.7630081-13.9229736-77.4629898c0-11.4830017,0.7699585-22.986021,2.6469727-34.3330078
			l9.8120117,0.0019836c-2.3779907,10.7740173-3.1140137,21.8420086-3.1140137,32.8330078
			c0,23.1640015,2.8770142,47.7639923,9.5960083,70.0399933H114.2694168z M69.3634109,25.2454319
			c0.1790161-2.3840027,0.7559814-4.7870178,1.5899658-7.0680237c-0.3259888,0.5720215-0.9689941,0.9630127-1.7099609,0.9630127
			c-1.0690308,0-1.9370117-0.8150024-1.9370117-1.822998c0-1.006012,0.867981-1.822999,1.9370117-1.822999
			c1.0719604,0,1.9379883,0.816987,1.9379883,1.822999c0,0.1170044-0.0100098,0.2330017-0.0339966,0.3439941
			c1.0910034-2.8269968,2.5670166-5.4440012,4.1489868-7.5759897c-0.335022,0.2569885-0.7620239,0.4119873-1.2290039,0.4119873
			c-1.0700073,0-1.9370117-0.815979-1.9370117-1.8240051c0-1.006988,0.8670044-1.8229976,1.9370117-1.8229976
			c1.0720215,0,1.9379883,0.8160095,1.9379883,1.8229976c0,0.2330017-0.0459595,0.4520264-0.1279907,0.6570129
			c1.1279907-1.414001,2.2919922-2.5700068,3.3959961-3.3710017c6.1030273-4.8500061,11.4530029-6.1399841,15.5220337-2.7739868
			c3.7659912,2.9019775-9.5910034,15.54599-13.3880005,22.7019958c-2.7810059,5.177002-1.8510132,5.3359985,5.2139893,11.802
			c4.8129883,4.5139771,5.0349731,4.617981,7.0269775,6.6659851c1.835022,1.8869934,2.2330322,3.0270081,0.5319824,5.3009949
			c-3.2879639,3.4470215-5.6919556,6.5660095-11.6769409,12.3130188c-1.0460205,1.0959778-0.7550049,1.822998,0.5469971,3.0109863
			c3.0539551,2.8430176,9.1999512,8.0929871,12.617981,12.1499939c1.2009888,1.3249969,1.2940063,2.8659973,0.1259766,4.3059998
			c-2.0570068,2.7660065-5.5979614,6.5769958-8.6989746,10.0339966c-1.4990234,1.7880096-1.4750366,2.2580109,0.2000122,3.4730072
			c5.848999,4.3009949,9.1349487,6.821991,11.7259521,8.8939972c3.7190552,2.5379944,2.5030518,3.6990051,0.5320435,6.9519958
			c-3.8980103,5.1529999-7.3699951,9.5360107-11.6240234,12.3769989c-2.1270142,1.303009-5.6759644,1.6840057-6.2189941-1.7679901
			c-0.1519775-1.7340088,1.2009888-3.7200012,3.2219849-5.8040009c-0.3129883,0.2019958-0.6919556,0.3190002-1.1010132,0.3190002
			c-1.0699463,0-1.9379883-0.8120117-1.9379883-1.8209991c0-1.0039978,0.868042-1.822998,1.9379883-1.822998
			c1.0690308,0,1.9370117,0.8190002,1.9370117,1.822998c0,0.3419952-0.1009521,0.6599884-0.2730103,0.9339905
			c1.6650391-1.6389923,3.6920166-3.3309937,5.6860352-5.0079956c0.9099731-0.7480011,0.5599976-1.1990051-0.9089966-2.4329987
			c-1.4830322-1.0960083-2.9060059-2.2080078-4.3320313-3.352005c0.2820435,0.3150024,0.4500122,0.7220001,0.4500122,1.1679993
			c0,1.0050049-0.867981,1.8209991-1.9379883,1.8209991s-1.9370117-0.8159943-1.9370117-1.8209991
			c0-1.0059967,0.8670044-1.822998,1.9370117-1.822998c0.3640137,0,0.7039795,0.0950012,0.9959717,0.2590027
			c-2.1239624-1.7140045-4.2709961-3.5090027-6.6399536-5.4450073c0.1789551,0.276001,0.2819824,0.6010132,0.2819824,0.9460144
			c0,1.0079956-0.867981,1.8209991-1.9379883,1.8209991s-1.9370117-0.8130035-1.9370117-1.8209991
			c0-1.0070038,0.8670044-1.8220062,1.9370117-1.8220062c0.2659912,0,0.5209961,0.0500031,0.7550049,0.1430054l-1.4160156-1.1399994
			c-1.9019775-1.826004-1.9019775-3.0950012,0.1790161-5.4470062l1.0459595-1.1759949
			c-0.2979736,0.173996-0.6459961,0.272995-1.0189819,0.272995c-1.0709839,0-1.9390259-0.8170013-1.9390259-1.8220062
			c0-1.0099945,0.868042-1.822998,1.9390259-1.822998c1.0690308,0,1.9370117,0.8130035,1.9370117,1.822998
			c0,0.2350006-0.0490112,0.4600067-0.1329956,0.6650085c1.5429688-1.7450104,3.1419678-3.5680084,4.5249634-5.1719971
			c-0.3379517,0.2649994-0.7699585,0.4229889-1.2409668,0.4229889c-1.0700073,0-1.9370117-0.8159943-1.9370117-1.8249969
			c0-1.0050049,0.8670044-1.8209991,1.9370117-1.8209991c1.0709839,0,1.9379883,0.8159943,1.9379883,1.8209991
			c0,0.3090057-0.0800171,0.5980072-0.2219849,0.852005l1.5570068-1.8280029
			c1.0819702-1.4349976,1.7389526-1.6470032,0.4459839-3.0019989c-1.2730103-1.2290039-2.9279785-2.7620087-4.6610107-4.3659821
			c0.1749878,0.2739868,0.2739868,0.5959778,0.2739868,0.9379883c0,1.0069885-0.8670044,1.822998-1.9370117,1.822998
			c-1.0709839,0-1.9369507-0.8160095-1.9369507-1.822998c0-1.0079956,0.8659668-1.822998,1.9369507-1.822998
			c0.3510132,0,0.6820068,0.0889893,0.967041,0.2420044c-1.8660278-1.7250061-3.7789917-3.4920044-5.3779907-5.0249939
			c0.1350098,0.25,0.2099609,0.5299988,0.2099609,0.8259888c0,1.0100098-0.8670044,1.8250122-1.9369507,1.8250122
			c-1.0720215,0-1.9380493-0.8150024-1.9380493-1.8250122c0-1.0069885,0.8660278-1.822998,1.9380493-1.822998
			c0.3329468,0,0.6479492,0.0799866,0.9199829,0.2210083c-0.8670044-0.8450012-1.6040039-1.5920105-2.1420288-2.1820068
			c-1.7919922-2.1130066-1.6859741-3.6100159,0.1069946-5.5280151c0.5830078-0.5869751,1.28302-1.3199768,2.0690308-2.1469727
			c-0.3079834,0.1919861-0.6760254,0.3039856-1.0709839,0.3039856c-1.0710449,0-1.9390259-0.8150024-1.9390259-1.822998
			c0-1.0090027,0.867981-1.821991,1.9390259-1.821991c1.0679932,0,1.9349976,0.8129883,1.9349976,1.821991
			c0,0.3009949-0.0760498,0.5830078-0.2109985,0.8309937c1.4759521-1.553009,3.1939697-3.3500061,4.9629517-5.0679932
			c-0.2769775,0.1440125-0.5969849,0.2259827-0.9369507,0.2259827c-1.0700073,0-1.9370117-0.815979-1.9370117-1.822998
			c0-1.0059814,0.8670044-1.822998,1.9370117-1.822998c1.0719604,0,1.9389648,0.8170166,1.9389648,1.822998
			c0,0.3040161-0.0809937,0.5950012-0.2229614,0.8470154c0.5909424-0.5610046,1.1859741-1.1080017,1.776001-1.631012
			c1.3639526-1.0959778,1.5889893-1.8889771,0.7879639-2.7569885c-1.8300171-1.7120056-3.4840088-3.1610107-5.0029907-4.5090027
			c0.1950073,0.2860107,0.3099976,0.6239929,0.3099976,0.9890137c0,1.0069885-0.8699951,1.822998-1.9390259,1.822998
			c-1.0699463,0-1.9369507-0.8160095-1.9369507-1.822998c0-1.006012,0.8670044-1.8240051,1.9369507-1.8240051
			c0.3480225,0,0.6730347,0.0870056,0.9560547,0.2380066c-1.90802-1.7000122-3.6090088-3.2720032-5.1980591-5.0550232
			c0.1430054,0.2539978,0.223999,0.5429993,0.223999,0.8500061c0,1.006012-0.8669434,1.822998-1.9369507,1.822998
			c-1.0720215,0-1.9370117-0.8169861-1.9370117-1.822998c0-1.0100098,0.8649902-1.8249817,1.9370117-1.8249817
			c0.4629517,0,0.8869629,0.1529846,1.2199707,0.4069824l-0.34198-0.4039917
			c-0.7739868-0.9420166-2.0750122-3.2099915-2.0679932-7.5740032c-0.1260376,0.8909912-0.9370117,1.5820007-1.9200439,1.5820007
			c-1.0699463,0-1.9369507-0.8179932-1.9369507-1.8250122c0-1.0049744,0.8670044-1.822998,1.9369507-1.822998
			c0.9980469,0,1.8190308,0.7070007,1.9260254,1.6210022C69.2014236,26.9744358,69.2573929,26.141428,69.3634109,25.2454319
			 M82.1674271,7.7334075c0,1.0070186,0.8669434,1.8250117,1.9379883,1.8250117
			c1.0700073,0,1.9370117-0.8179932,1.9370117-1.8250117c0-1.0059814-0.8670044-1.8209839-1.9370117-1.8209839
			C83.0343704,5.9124236,82.1674271,6.7274261,82.1674271,7.7334075"/>
		<path class="st1" d="M7.2461643,186.3921204h14.5300293v-5.9660034H7.2461643v-7.7700043h14.9590454v-5.9199982H0.7572119
			v33.6730042h21.9229736v-5.9660034H7.2461643V186.3921204z M32.1651726,169.0471191h-6.5239887v31.3659973h22.0990009v-5.6069946
			H32.1651726V169.0471191z M76.2622147,182.3831177c0.75-0.5079956,1.3759766-1.098999,1.8569946-1.779007
			c0.8949585-1.25,1.3459473-2.8159943,1.3459473-4.6519928c0-2.9380035-0.9889526-5.2550049-2.9439697-6.878006
			c-1.9000244-1.5820007-4.5880127-2.3840027-7.9920044-2.3840027H58.1931877v33.7510071h12.0750084
			c3.53302,0,6.3950195-0.8630066,8.5039673-2.5690002c2.1700439-1.7519989,3.2700195-4.1289978,3.2700195-7.0599976
			c0-2.2929993-0.7230225-4.2770081-2.1480103-5.8910065C78.9481888,183.848114,77.7282181,183.0031128,76.2622147,182.3831177
			 M64.655159,172.7081146h3.4150391c1.7219849,0,2.9569702,0.2890015,3.6719971,0.8600006
			c0.6599731,0.5249939,0.9799805,1.397995,0.9799805,2.6640015c0,1.4049988-0.427002,2.3999939-1.3059692,3.0509949
			c-0.9559937,0.70401-2.5130005,1.0620117-4.6270142,1.0620117H64.655159V172.7081146z M74.08918,193.3991089
			c-0.8549805,0.6480103-2.2999878,0.977005-4.2999878,0.977005H64.655159v-7.9649963h4.4000244
			c2.2559814,0,3.8980103,0.3500061,4.8770142,1.0440063c0.8880005,0.6239929,1.3200073,1.6179962,1.3200073,3.0289917
			C75.2522049,191.8491211,74.8722,192.8031158,74.08918,193.3991089 M130.4741974,181.950119
			c-0.0109863-0.0050049-0.664978-0.3710022-0.664978-0.3710022c-4.4410477-2.5800018-4.9230423-3.9649963-4.9230423-4.4430084
			c0-0.6929932,0.2930298-1.2269897,0.9210205-1.6839905c0.7039795-0.5120087,1.6499634-0.7700043,2.8159866-0.7700043
			c1.0130005,0,2.0449829,0.2070007,3.06604,0.6139984c1.0559692,0.4219971,2.2369995,1.1210022,3.5079956,2.0749969
			l1.4699707,1.0970001v-6.9909973l-0.4630127-0.2649994c-1.2279663-0.6989899-2.4679565-1.2229919-3.6779785-1.5599976
			c-1.2210083-0.3419952-2.4760132-0.5139923-3.7349854-0.5139923c-2.8640213,0-5.2529984,0.7879944-7.1010208,2.3409882
			c-1.8920288,1.5920105-2.8510132,3.6600037-2.8510132,6.1419983c0,1.7730103,0.5079956,3.3300018,1.5150146,4.6300049
			c0.9609985,1.2400055,3.1749878,2.8919983,6.7650146,5.0420074c2.6560135,1.5670013,3.6389847,2.397995,3.9939651,2.8209991
			c0.4500122,0.5339966,0.6690063,1.1329956,0.6690063,1.8349915c0,0.8350067-0.2979736,1.4499969-0.9450073,1.9329987
			c-0.7069702,0.5320129-1.7290039,0.802002-3.0329666,0.802002c-1.2730103,0-2.4899902-0.2899933-3.6119995-0.8699951
			c-1.1610107-0.6000061-2.4130249-1.6069946-3.7220459-3.0010071l-1.5889893-1.6909943v8.1289978l0.3580322,0.2770081
			c1.3029785,1.0059967,2.6870117,1.7519989,4.1079712,2.2109985c1.4160156,0.4629974,3.0130005,0.696991,4.7479935,0.696991
			c2.8530273,0,5.2360229-0.7879944,7.092041-2.3349915c1.9029541-1.5920105,2.867981-3.6390076,2.867981-6.076004
			c0-2.0919952-0.5120239-3.8840027-1.5239868-5.3269958C135.5371857,185.2781219,133.5581818,183.72612,130.4741974,181.950119
			 M169.3482208,195.2591095c2.3328857-2.7969971,3.5148926-6.1069946,3.5148926-9.8429871
			c0-2.2770081-0.4208984-4.4230042-1.2449951-6.3800049c-0.8269043-1.9560089-2.0718994-3.7539978-3.6989746-5.3399963
			c-1.5539551-1.5270081-3.3769531-2.7180023-5.4219971-3.5340118c-2.0369873-0.8159943-4.2179565-1.2309875-6.4839478-1.2309875
			c-2.2230225,0-4.3720093,0.4119873-6.3889771,1.2200012c-2.019043,0.8099976-3.8540039,2.0009918-5.4470215,3.5399933
			c-1.5739746,1.5189972-2.8049927,3.2929993-3.65802,5.2769928c-0.8569946,1.9869995-1.289978,4.0620117-1.289978,6.1680145
			c0,3.8539886,1.1669922,7.2779999,3.4699707,10.1789856c2.2590332,2.8500061,5.2850342,4.7649994,8.9860229,5.7130127
			c2.7130127,1.9319916,5.3250122,3.4269867,7.7540283,4.4449921c2.5228882,1.0529938,4.8449097,1.5879974,6.9028931,1.5879974
			c0.2790527,0,0.4940186-0.003006,0.644043-0.0100098c0.1789551-0.0130005,0.3609619-0.0369873,0.5450439-0.0749969
			l0.2459717-0.0480042l0.1879883-0.1649933l4.0360107-3.5149841l0.5029297-0.4360046l-0.2349854-0.6190033l-0.1708984-0.4499969
			l-0.2850342-0.7519989l-0.7900391,0.1539917c-0.5539551,0.1100006-1.0720215,0.1920013-1.5300293,0.2470093
			c-0.4519043,0.0529938-0.8688965,0.0759888-1.2390137,0.0759888c-1.1729736,0-2.4208984-0.1649933-3.7009277-0.5009918
			c-0.6879883-0.1779938-1.4389648-0.427002-2.2470703-0.723999
			C165.166214,199.0991211,167.5351105,197.4361115,169.3482208,195.2591095 M165.6421661,188.6461182
			c-0.5229492,1.2570038-1.2790527,2.3840027-2.2480469,3.3560028c-1.013916,1.0309906-2.1569824,1.8179932-3.4029541,2.3399963
			c-1.2449951,0.522995-2.5829468,0.7870026-3.9779663,0.7870026c-1.3510132,0-2.6779785-0.2740021-3.9470215-0.8160095
			c-1.2769775-0.54599-2.414978-1.322998-3.3839722-2.3069916c-0.9730225-0.9730072-1.723999-2.102005-2.242981-3.3580017
			c-0.5130005-1.2510071-0.7770386-2.5919952-0.7770386-3.9830017c0-1.4029999,0.2640381-2.7599945,0.7780151-4.026001
			c0.5159912-1.2639923,1.2659912-2.3820038,2.2299805-3.321991c1.0120239-0.9890137,2.1669922-1.7620087,3.4330444-2.2950134
			c1.2549438-0.5299988,2.572998-0.7979889,3.9099731-0.7979889c1.3980103,0,2.7379761,0.2669983,3.9890137,0.7869873
			c1.2470093,0.5250092,2.3709106,1.2910004,3.3389282,2.2890015c1.0209961,1.0340118,1.7960205,2.1820068,2.3120117,3.4190063
			c0.5159912,1.2339935,0.7769775,2.5619965,0.7769775,3.9459991
			C166.43013,186.0531158,166.166214,187.3951111,165.6421661,188.6461182 M196.2442169,188.2961121
			c0,1.8890076-0.6530762,3.3590088-2.0030518,4.5010071c-1.3759766,1.1640015-3.2469482,1.7559967-5.5610352,1.7559967
			c-1.381958,0-2.6259766-0.2319946-3.6959229-0.6849976c-1.0510254-0.4420013-1.973999-1.1269989-2.7449951-2.0339966
			c-0.3780518-0.4600067-0.6580811-1.0220032-0.8260498-1.6660004c-0.125-0.4860077-0.2769775-1.5360107-0.2769775-3.7710114
			V169.072113h-6.0960693v17.4960022c0,2.4389954,0.1650391,4.2210083,0.5080566,5.4380035
			c0.3520508,1.2509918,0.9549561,2.3959961,1.7969971,3.4109955c1.3189697,1.6329956,2.9709473,2.8959961,4.8990479,3.7470093
			c1.9129639,0.8439941,4.0780029,1.2719879,6.4359131,1.2719879c4,0,7.3029785-1.1080017,9.8170166-3.3000031
			c2.5540771-2.223999,3.8480225-5.1559906,3.8480225-8.7159882V169.072113h-6.1009521V188.2961121z M212.1951447,194.7131195
			v-7.2279968h14.6149902v-5.6790009h-14.6149902v-6.9660034h15.0469971v-5.6399994h-21.6030273v31.1909943h22.0830078v-5.6779938
			H212.1951447z M112.21418,173.4631195c-1.5639648-1.4950104-3.3980103-2.6569977-5.4530029-3.4560089
			c-2.0490112-0.7949982-4.2409668-1.1959991-6.5139771-1.1959991c-2.2310181,0-4.3920288,0.3980103-6.4160156,1.1900024
			c-2.0289917,0.7850037-3.8729858,1.947998-5.4819946,3.4560089c-1.5839844,1.4829865-2.822998,3.2149963-3.684021,5.1559906
			c-0.8619995,1.9459991-1.2999878,3.977005-1.2999878,6.0440063c0,2.2019958,0.427002,4.3009949,1.2659912,6.2440033
			c0.8389893,1.9429932,2.0889893,3.7059937,3.7160034,5.243988c1.56604,1.480011,3.3980103,2.6360016,5.447998,3.4380035
			c2.0480347,0.8029938,4.2189941,1.2120056,6.4520264,1.2120056c2.2879639,0,4.473999-0.3950043,6.4920044-1.1760101
			c2.0219727-0.7849884,3.8759766-1.9489899,5.5109863-3.4669952c1.5709839-1.4700012,2.802002-3.1970062,3.6549683-5.1300049
			c0.8550415-1.9349976,1.2890015-3.9869995,1.2890015-6.0929871c0-2.2320099-0.4219971-4.3330078-1.2539673-6.2480011
			C115.1071854,176.7671204,113.8541946,175.0111084,112.21418,173.4631195 M109.9392166,188.6771088
			c-0.5240479,1.2260132-1.28302,2.3250122-2.2580566,3.2710114c-0.9889526,0.9729919-2.1239624,1.7189941-3.3729858,2.2180023
			c-1.2550049,0.5009918-2.6199951,0.7549896-4.0609741,0.7549896c-1.3959961,0-2.7529907-0.2630005-4.0369873-0.776001
			c-1.2750244-0.5099945-2.4030151-1.2460022-3.3440552-2.1909943c-0.9819946-0.9519958-1.7369995-2.0509949-2.2549438-3.2720032
			c-0.5160522-1.2200012-0.7780151-2.5220032-0.7780151-3.8710022c0-1.3589935,0.2619629-2.6779938,0.7789917-3.9129944
			c0.5169678-1.2299957,1.2689819-2.3170013,2.2340088-3.2299957c1.0209961-0.9690094,2.18396-1.723999,3.4569702-2.2440033
			c1.2659912-0.5169983,2.5939941-0.7819977,3.9440308-0.7819977c1.4089966,0,2.7619629,0.2590027,4.0249634,0.7740021
			c1.2540283,0.5089874,2.3870239,1.2609863,3.3569946,2.2350006c1.0240479,1.0039978,1.8040161,2.1259918,2.3220215,3.3289948
			c0.5139771,1.196991,0.776001,2.4869995,0.776001,3.8309937
			C110.7271805,186.1601105,110.4621658,187.4591217,109.9392166,188.6771088"/>
		<path class="st1" d="M17.6149998,149.2974091c0,2.3450012,0.6479492,4.2080078,1.947998,5.5900116
			c1.2989502,1.3809967,3.0339966,2.0699921,5.2099609,2.0699921c2.1760254,0,3.9119873-0.6889954,5.2120361-2.0699921
			c1.2979736-1.3820038,1.9469604-3.2450104,1.9469604-5.5900116v-12.8089905h1.8060322v12.7129974
			c0,2.9409943-0.8099976,5.2709961-2.429018,6.9960022c-1.6190186,1.723999-3.8010254,2.5870056-6.5430298,2.5870056
			c-2.7319946,0-4.9039917-0.8600006-6.5119629-2.576004c-1.6099854-1.7230072-2.4119873-4.0550079-2.4119873-7.0070038v-12.7129974
			h1.7730103V149.2974091z"/>
		<polygon class="st1" points="40.6561394,156.8063049 40.6561394,137.5533142 42.2481194,137.5533142 56.1820793,154.3543091 
			56.1820793,137.5533142 57.7141228,137.5533142 57.7141228,156.8063049 56.3001213,156.8063049 42.1890984,139.7803192 
			42.1890984,156.8063049 		"/>
		<rect x="64.6859818" y="137.8335114" class="st1" width="1.6450195" height="19.2519989"/>
		<polygon class="st1" points="71.8643875,137.8336029 73.5403519,137.8336029 80.0593338,153.9926147 86.6333694,137.8336029 
			88.2543411,137.8336029 80.1953812,157.4266052 79.950386,157.4266052 		"/>
		<polygon class="st1" points="92.8580399,157.0848999 92.8580399,137.832901 103.1770096,137.832901 103.1770096,139.0739136 
			94.3920364,139.0739136 94.3920364,146.713913 102.8920364,146.713913 102.8920364,147.9549103 94.3920364,147.9549103 
			94.3920364,155.7919006 103.3939896,155.7919006 103.3939896,157.0848999 		"/>
		<path class="st2" d="M111.7299271,139.1316071v7.3820038h1.1669922c1.4509888,0,2.4569702-0.0339966,3.0180054-0.1060028
			c0.5629883-0.0769958,1.0359497-0.196991,1.4159546-0.3739929c0.6970215-0.3120117,1.2200317-0.7470093,1.5700073-1.303009
			c0.3480225-0.5609894,0.5220337-1.2529907,0.5220337-2.0769958c0-1.1210022-0.3890381-1.9889984-1.1750488-2.602005
			c-0.7849731-0.6149902-1.8959961-0.9199982-3.3369751-0.9199982H111.7299271z M110.1959305,137.8336029h4.6329956
			c2.0209961,0,3.5709839,0.4160004,4.6499634,1.2460022c1.0790405,0.8330078,1.617981,2.0220032,1.617981,3.5709991
			c0,1.1850128-0.2999878,2.1650085-0.9039917,2.9440002c-0.6019897,0.7799988-1.5139771,1.3680115-2.7269897,1.7649994
			c0.3439941,0.2000122,0.6589966,0.4329987,0.9379883,0.6990051c0.2810059,0.2689972,0.53302,0.5709991,0.7600098,0.9109955
			l5.2390137,8.1160126h-1.7249756l-3.0360107-4.7340088c-0.5980225-0.927002-1.1140137-1.6900024-1.5499878-2.2879944
			c-0.434021-0.6000061-0.7790527-1.0299988-1.0339966-1.2830048c-0.3360596-0.3410034-0.7780151-0.5849915-1.3340454-0.7290039
			c-0.5509644-0.1369934-1.3629761-0.2099915-2.4309692-0.2099915h-1.5629883v9.2440033h-1.5339966V137.8336029z"/>
		<path class="st1" d="M111.7299271,139.1316071v7.3820038h1.1669922c1.4509888,0,2.4569702-0.0339966,3.0180054-0.1060028
			c0.5629883-0.0769958,1.0359497-0.196991,1.4159546-0.3739929c0.6970215-0.3120117,1.2200317-0.7470093,1.5700073-1.303009
			c0.3480225-0.5609894,0.5220337-1.2529907,0.5220337-2.0769958c0-1.1210022-0.3890381-1.9889984-1.1750488-2.602005
			c-0.7849731-0.6149902-1.8959961-0.9199982-3.3369751-0.9199982H111.7299271z M110.1959305,137.8336029h4.6329956
			c2.0209961,0,3.5709839,0.4160004,4.6499634,1.2460022c1.0790405,0.8330078,1.617981,2.0220032,1.617981,3.5709991
			c0,1.1850128-0.2999878,2.1650085-0.9039917,2.9440002c-0.6019897,0.7799988-1.5139771,1.3680115-2.7269897,1.7649994
			c0.3439941,0.2000122,0.6589966,0.4329987,0.9379883,0.6990051c0.2810059,0.2689972,0.53302,0.5709991,0.7600098,0.9109955
			l5.2390137,8.1160126h-1.7249756l-3.0360107-4.7340088c-0.5980225-0.927002-1.1140137-1.6900024-1.5499878-2.2879944
			c-0.434021-0.6000061-0.7790527-1.0299988-1.0339966-1.2830048c-0.3360596-0.3410034-0.7780151-0.5849915-1.3340454-0.7290039
			c-0.5509644-0.1369934-1.3629761-0.2099915-2.4309692-0.2099915h-1.5629883v9.2440033h-1.5339966V137.8336029z"/>
		<path class="st1" d="M138.3875885,140.5729065c-0.7880249-0.5409851-1.5410156-0.9389954-2.2510376-1.197998
			c-0.7119751-0.2569885-1.4179688-0.3829956-2.1170044-0.3829956c-1.1549683,0-2.0979614,0.3390045-2.8309937,1.022995
			c-0.7360229,0.6850128-1.1040039,1.5460052-1.1040039,2.5800018c0,0.8450012,0.2360229,1.5319977,0.7070313,2.0630035
			s1.4859619,1.1349945,3.0469971,1.8050079c0.0879517,0.0339966,0.2269897,0.0909882,0.407959,0.1639862
			c1.7650146,0.7260132,2.9400024,1.4230042,3.5289917,2.0950012c0.4130249,0.447998,0.7230225,0.9640045,0.934021,1.5410004
			c0.2160034,0.5780029,0.3220215,1.1930084,0.3220215,1.8440094c0,1.5349884-0.5280151,2.7939911-1.5830078,3.7809906
			c-1.0570068,0.9889984-2.4050293,1.480011-4.0499878,1.480011c-0.8250122,0-1.6420288-0.1430054-2.4559937-0.427002
			c-0.8099976-0.2860107-1.6300049-0.7140045-2.4580078-1.2870026v-1.8690033
			c0.8980103,0.7030029,1.7509766,1.2299957,2.5549927,1.5740051c0.8009644,0.3419952,1.5800171,0.5159912,2.3319702,0.5159912
			c1.2449951,0,2.2290039-0.345993,2.9530029-1.0319977c0.7280273-0.6909943,1.0880127-1.6230011,1.0880127-2.8079987
			c0-0.8679962-0.2449951-1.5859985-0.7379761-2.1399994c-0.4960327-0.5529938-1.6230469-1.2030029-3.3800049-1.9470062
			c-1.8209839-0.7599945-3.0679932-1.5299988-3.7390137-2.3049927c-0.6679688-0.776001-1.0029907-1.7680054-1.0029907-2.9669952
			c0-1.4970093,0.5109863-2.7200012,1.5289917-3.6690063c1.0209961-0.9519958,2.3519897-1.4259949,3.9940186-1.4259949
			c0.742981,0,1.4689941,0.1040039,2.177002,0.3099976c0.7069702,0.2070007,1.4169922,0.5269928,2.1350098,0.9589996V140.5729065z"
			/>
		<rect x="145.1530304" y="137.8335114" class="st1" width="1.6450195" height="19.2519989"/>
		<path class="st2" d="M160.1561432,139.2166138h-4.6030273v16.5139923h4.6030273
			c1.2520142,0,2.3309937-0.1009979,3.2329712-0.3139954c0.9050293-0.2089996,1.6820068-0.5400085,2.3370361-0.9900055
			c1.0609131-0.7149963,1.8939209-1.6869965,2.4959717-2.9179993c0.6040039-1.2279968,0.9089355-2.5749969,0.9089355-4.0339966
			s-0.3049316-2.8049927-0.9089355-4.0390015c-0.6020508-1.2350006-1.4350586-2.2109985-2.4959717-2.9250031
			c-0.6550293-0.4519958-1.4320068-0.7779999-2.3370361-0.9869995
			C162.4871368,139.3216095,161.4081573,139.2166138,160.1561432,139.2166138 M160.5381622,137.8336029
			c1.4519043,0,2.6899414,0.1420135,3.7089844,0.4220123c1.0209961,0.2769928,1.9389648,0.7189941,2.7579346,1.3269958
			c1.1950684,0.897995,2.1280518,2.0390015,2.7940674,3.4199982c0.6689453,1.3800049,1.0019531,2.8639984,1.0019531,4.4519958
			c0,1.57901-0.3330078,3.0559998-1.0019531,4.4370117c-0.6660156,1.3819885-1.598999,2.5209961-2.7940674,3.4179993
			c-0.8189697,0.6169891-1.7449951,1.0659943-2.7800293,1.3499908c-1.0319824,0.2870026-2.2629395,0.4260101-3.6868896,0.4260101
			h-6.6010132v-19.2520142H160.5381622z"/>
		<path class="st1" d="M160.1561432,139.2166138h-4.6030273v16.5139923h4.6030273
			c1.2520142,0,2.3309937-0.1009979,3.2329712-0.3139954c0.9050293-0.2089996,1.6820068-0.5400085,2.3370361-0.9900055
			c1.0609131-0.7149963,1.8939209-1.6869965,2.4959717-2.9179993c0.6040039-1.2279968,0.9089355-2.5749969,0.9089355-4.0339966
			s-0.3049316-2.8049927-0.9089355-4.0390015c-0.6020508-1.2350006-1.4350586-2.2109985-2.4959717-2.9250031
			c-0.6550293-0.4519958-1.4320068-0.7779999-2.3370361-0.9869995
			C162.4871368,139.3216095,161.4081573,139.2166138,160.1561432,139.2166138 M160.5381622,137.8336029
			c1.4519043,0,2.6899414,0.1420135,3.7089844,0.4220123c1.0209961,0.2769928,1.9389648,0.7189941,2.7579346,1.3269958
			c1.1950684,0.897995,2.1280518,2.0390015,2.7940674,3.4199982c0.6689453,1.3800049,1.0019531,2.8639984,1.0019531,4.4519958
			c0,1.57901-0.3330078,3.0559998-1.0019531,4.4370117c-0.6660156,1.3819885-1.598999,2.5209961-2.7940674,3.4179993
			c-0.8189697,0.6169891-1.7449951,1.0659943-2.7800293,1.3499908c-1.0319824,0.2870026-2.2629395,0.4260101-3.6868896,0.4260101
			h-6.6010132v-19.2520142H160.5381622z"/>
		<path class="st2" d="M178.4171906,149.4439087h6.9790039l-3.4849854-8.3460083L178.4171906,149.4439087z M173.6842804,157.0848999
			l7.9309082-18.5369873h0.5839844l7.9290771,18.5369873h-1.5350342l-2.69104-6.3999939h-7.9919434l-2.677002,6.3999939H173.6842804
			z"/>
		<path class="st1" d="M178.4171906,149.4439087h6.9790039l-3.4849854-8.3460083L178.4171906,149.4439087z M173.6842804,157.0848999
			l7.9309082-18.5369873h0.5839844l7.9290771,18.5369873h-1.5350342l-2.69104-6.3999939h-7.9919434l-2.677002,6.3999939H173.6842804
			z"/>
		<path class="st2" d="M201.9173126,139.2166138h-4.6040039v16.5139923h4.6040039
			c1.2539063,0,2.3280029-0.1009979,3.2329102-0.3139954c0.9030762-0.2089996,1.6800537-0.5400085,2.3339844-0.9900055
			c1.0631104-0.7149963,1.8959961-1.6869965,2.4980469-2.9179993c0.6049805-1.2279968,0.9060059-2.5749969,0.9060059-4.0339966
			s-0.3010254-2.8049927-0.9060059-4.0390015c-0.6020508-1.2350006-1.4349365-2.2109985-2.4980469-2.9250031
			c-0.6539307-0.4519958-1.4309082-0.7779999-2.3339844-0.9869995
			C204.2453156,139.3216095,203.1712189,139.2166138,201.9173126,139.2166138 M202.2973175,137.8336029
			c1.4519043,0,2.6899414,0.1420135,3.7099609,0.4220123c1.0209961,0.2769928,1.9399414,0.7189941,2.7559814,1.3269958
			c1.1970215,0.897995,2.1309814,2.0390015,2.7969971,3.4199982c0.6660156,1.3800049,1.0030518,2.8639984,1.0030518,4.4519958
			c0,1.57901-0.3370361,3.0559998-1.0030518,4.4370117c-0.6660156,1.3819885-1.5999756,2.5209961-2.7969971,3.4179993
			c-0.81604,0.6169891-1.743042,1.0659943-2.7779541,1.3499908c-1.0330811,0.2870026-2.2630615,0.4260101-3.6879883,0.4260101
			h-6.6000977v-19.2520142H202.2973175z"/>
		<path class="st1" d="M201.9173126,139.2166138h-4.6040039v16.5139923h4.6040039
			c1.2539063,0,2.3280029-0.1009979,3.2329102-0.3139954c0.9030762-0.2089996,1.6800537-0.5400085,2.3339844-0.9900055
			c1.0631104-0.7149963,1.8959961-1.6869965,2.4980469-2.9179993c0.6049805-1.2279968,0.9060059-2.5749969,0.9060059-4.0339966
			s-0.3010254-2.8049927-0.9060059-4.0390015c-0.6020508-1.2350006-1.4349365-2.2109985-2.4980469-2.9250031
			c-0.6539307-0.4519958-1.4309082-0.7779999-2.3339844-0.9869995
			C204.2453156,139.3216095,203.1712189,139.2166138,201.9173126,139.2166138 M202.2973175,137.8336029
			c1.4519043,0,2.6899414,0.1420135,3.7099609,0.4220123c1.0209961,0.2769928,1.9399414,0.7189941,2.7559814,1.3269958
			c1.1970215,0.897995,2.1309814,2.0390015,2.7969971,3.4199982c0.6660156,1.3800049,1.0030518,2.8639984,1.0030518,4.4519958
			c0,1.57901-0.3370361,3.0559998-1.0030518,4.4370117c-0.6660156,1.3819885-1.5999756,2.5209961-2.7969971,3.4179993
			c-0.81604,0.6169891-1.743042,1.0659943-2.7779541,1.3499908c-1.0330811,0.2870026-2.2630615,0.4260101-3.6879883,0.4260101
			h-6.6000977v-19.2520142H202.2973175z"/>
	</g>
</g>
</svg>
